<svg width="40" height="40" viewBox="0 0 40 40" fill="none" xmlns="http://www.w3.org/2000/svg">
<g clip-path="url(#clip0_1966_2349)">
<g clip-path="url(#clip1_1966_2349)">
<path d="M34.2939 6.14648C34.8245 6.14648 35.3335 6.3573 35.7088 6.73256C36.084 7.10781 36.2948 7.61677 36.2948 8.14746V21.0553C36.2948 21.586 36.084 22.095 35.7088 22.4702C35.3335 22.8455 34.8245 23.0563 34.2939 23.0563H5.07959C4.5489 23.0563 4.03994 22.8455 3.66469 22.4702C3.28943 22.095 3.07861 21.586 3.07861 21.0553V8.14746C3.07861 7.61677 3.28943 7.10781 3.66469 6.73256C4.03994 6.3573 4.5489 6.14648 5.07959 6.14648H34.2939Z" fill="#FEA000"/>
<path d="M15.6076 3.06836C18.0396 3.06836 20.0098 5.10474 20.0098 7.61827V10.512H35.6174C38.0493 10.512 40.0195 12.5499 40.0195 15.0634V33.1507C40.0195 35.6643 38.0493 37.7007 35.6174 37.7007H4.40215C1.97019 37.7007 0 35.6643 0 33.1507V15.0634C0 14.9249 0.00615685 14.7864 0.0184706 14.6479C0.00638934 14.5112 0.000226727 14.3741 0 14.2369L0 7.61827C0 5.10628 1.97019 3.06836 4.40215 3.06836H15.6076Z" fill="#FEA000"/>
<path d="M15.6076 2.29883C18.0396 2.29883 20.0098 4.21669 20.0098 6.58092V9.30533H35.6174C38.0493 9.30687 40.0195 11.2263 40.0195 13.5905V31.1114C40.0195 33.4756 38.0493 35.3934 35.6174 35.3934H4.40215C1.97019 35.3919 0 33.4741 0 31.1098V13.589C0 13.4597 0.00615685 13.3273 0.0184706 13.1995C0.0063571 13.0706 0.000193701 12.9412 0 12.8117L0 6.58092C0 4.21669 1.97019 2.29883 4.40215 2.29883H15.6076Z" fill="#FFC851"/>
<path d="M23.313 15.1683C23.3134 15.7243 23.5347 16.2573 23.9281 16.6502C24.1229 16.8447 24.3542 16.999 24.6086 17.1041C24.863 17.2093 25.1357 17.2633 25.411 17.2631C25.6863 17.2629 25.9588 17.2085 26.2131 17.103C26.4674 16.9974 26.6984 16.8428 26.8929 16.648C27.0874 16.4532 27.2417 16.222 27.3468 15.9676C27.452 15.7131 27.506 15.4405 27.5058 15.1652C27.5054 14.6092 27.2842 14.0761 26.8907 13.6832C26.4973 13.2904 25.9639 13.0699 25.4079 13.0703C24.8519 13.0707 24.3188 13.292 23.926 13.6854C23.5331 14.0789 23.3126 14.6123 23.313 15.1683ZM14.521 18.3637L9.5386 26.5323C8.69973 27.9483 9.69714 29.7277 11.3225 29.7277H21.3367C22.9621 29.7277 23.9595 27.9468 23.1206 26.5323L18.1382 18.3637C17.2993 17.0538 15.3599 17.0538 14.521 18.3637Z" fill="#FEA000"/>
<path opacity="0.622" d="M23.5931 21.5356L20.6886 26.2918C19.7604 27.8587 20.864 29.832 22.6634 29.832H28.4724C30.2733 29.832 31.3769 27.8587 30.4472 26.2918L27.5427 21.5356C26.6715 20.0272 24.4643 20.0272 23.5931 21.5356Z" fill="#FEA000"/>
</g>
</g>
<defs>
<clipPath id="clip0_1966_2349">
<rect width="40" height="40" fill="white"/>
</clipPath>
<clipPath id="clip1_1966_2349">
<rect width="40" height="40" fill="white"/>
</clipPath>
</defs>
</svg>
