<svg width="40" height="40" viewBox="0 0 40 40" fill="none" xmlns="http://www.w3.org/2000/svg">
<g clip-path="url(#clip0_1968_2666)">
<path d="M34.2939 6.14648C34.8245 6.14648 35.3335 6.3573 35.7088 6.73256C36.084 7.10781 36.2948 7.61677 36.2948 8.14746V21.0553C36.2948 21.586 36.084 22.095 35.7088 22.4702C35.3335 22.8455 34.8245 23.0563 34.2939 23.0563H5.07959C4.5489 23.0563 4.03994 22.8455 3.66469 22.4702C3.28943 22.095 3.07861 21.586 3.07861 21.0553V8.14746C3.07861 7.61677 3.28943 7.10781 3.66469 6.73256C4.03994 6.3573 4.5489 6.14648 5.07959 6.14648H34.2939Z" fill="#2ABA1D"/>
<path d="M15.6076 3.06836C18.0396 3.06836 20.0098 5.10474 20.0098 7.61827V10.512H35.6174C38.0493 10.512 40.0195 12.5499 40.0195 15.0634V33.1507C40.0195 35.6643 38.0493 37.7007 35.6174 37.7007H4.40215C1.97019 37.7007 0 35.6643 0 33.1507V15.0634C0 14.9249 0.00615685 14.7864 0.0184706 14.6479C0.00638934 14.5112 0.000226727 14.3741 0 14.2369L0 7.61827C0 5.10628 1.97019 3.06836 4.40215 3.06836H15.6076Z" fill="#2ABA1D"/>
<path d="M15.6076 2.29883C18.0396 2.29883 20.0098 4.21669 20.0098 6.58092V9.30533H35.6174C38.0493 9.30687 40.0195 11.2263 40.0195 13.5905V31.1114C40.0195 33.4756 38.0493 35.3934 35.6174 35.3934H4.40215C1.97019 35.3919 0 33.4741 0 31.1098V13.589C0 13.4597 0.00615685 13.3273 0.0184706 13.1995C0.0063571 13.0706 0.000193701 12.9412 0 12.8117L0 6.58092C0 4.21669 1.97019 2.29883 4.40215 2.29883H15.6076Z" fill="#48D244"/>
<path d="M28.4431 25L19.8534 28.9149C19.7463 28.9574 19.6392 29 19.5107 29C19.3822 29 19.2751 28.9787 19.168 28.9149L10.5569 25C10.2356 24.8511 10 24.5106 10 24.1064C10 23.5745 10.407 23.1277 10.8997 23.1277C11.0282 23.1277 11.1353 23.1489 11.2424 23.2128L19.4893 26.9574L27.7362 23.2128C27.8433 23.1702 27.9504 23.1277 28.0789 23.1277C28.5716 23.1277 28.9786 23.5745 28.9786 24.1064C29 24.5106 28.7644 24.8511 28.4431 25ZM28.4431 20.766L19.8534 24.6809C19.7463 24.7234 19.6392 24.766 19.5107 24.766C19.3822 24.766 19.2751 24.7447 19.168 24.6809L10.5569 20.766C10.2356 20.617 10 20.2766 10 19.8723C10 19.4681 10.2356 19.1064 10.5569 18.9787L19.1466 15.0851C19.2537 15.0426 19.3608 15 19.4893 15C19.6178 15 19.7249 15.0213 19.832 15.0851L28.4431 18.9574C28.7644 19.1064 29 19.4468 29 19.8511C29 20.2766 28.7644 20.617 28.4431 20.766Z" fill="#2ABA1D"/>
</g>
<defs>
<clipPath id="clip0_1968_2666">
<rect width="40" height="40" fill="white"/>
</clipPath>
</defs>
</svg>
