<svg width="40" height="40" viewBox="0 0 40 40" fill="none" xmlns="http://www.w3.org/2000/svg">
<g clip-path="url(#clip0_1967_2646)">
<path d="M34.2939 6.14648C34.8245 6.14648 35.3335 6.3573 35.7088 6.73256C36.084 7.10781 36.2948 7.61677 36.2948 8.14746V21.0553C36.2948 21.586 36.084 22.095 35.7088 22.4702C35.3335 22.8455 34.8245 23.0563 34.2939 23.0563H5.07959C4.5489 23.0563 4.03994 22.8455 3.66469 22.4702C3.28943 22.095 3.07861 21.586 3.07861 21.0553V8.14746C3.07861 7.61677 3.28943 7.10781 3.66469 6.73256C4.03994 6.3573 4.5489 6.14648 5.07959 6.14648H34.2939Z" fill="#0094FE"/>
<path d="M15.6076 3.06836C18.0396 3.06836 20.0098 5.10474 20.0098 7.61827V10.512H35.6174C38.0493 10.512 40.0195 12.5499 40.0195 15.0634V33.1507C40.0195 35.6643 38.0493 37.7007 35.6174 37.7007H4.40215C1.97019 37.7007 0 35.6643 0 33.1507V15.0634C0 14.9249 0.00615685 14.7864 0.0184706 14.6479C0.00638934 14.5112 0.000226727 14.3741 0 14.2369L0 7.61827C0 5.10628 1.97019 3.06836 4.40215 3.06836H15.6076Z" fill="#0094FE"/>
<path d="M15.6076 2.29883C18.0396 2.29883 20.0098 4.21669 20.0098 6.58092V9.30533H35.6174C38.0493 9.30687 40.0195 11.2263 40.0195 13.5905V31.1114C40.0195 33.4756 38.0493 35.3934 35.6174 35.3934H4.40215C1.97019 35.3919 0 33.4741 0 31.1098V13.589C0 13.4597 0.00615685 13.3273 0.0184706 13.1995C0.0063571 13.0706 0.000193701 12.9412 0 12.8117L0 6.58092C0 4.21669 1.97019 2.29883 4.40215 2.29883H15.6076Z" fill="#51B1FF"/>
<path d="M13 21.5V16.3272C13 14.8188 14.6062 13.8533 15.9383 14.561L21 17.25L25.6753 19.7338C27.0909 20.4858 27.0909 22.5142 25.6753 23.2662L21 25.75L15.9383 28.439C14.6062 29.1467 13 28.1812 13 26.6728V21.5Z" fill="#0094FE"/>
</g>
<defs>
<clipPath id="clip0_1967_2646">
<rect width="40" height="40" fill="white"/>
</clipPath>
</defs>
</svg>
