<svg width="20" height="20" viewBox="0 0 20 20" fill="none" xmlns="http://www.w3.org/2000/svg">
<path d="M7.5 2.91602C7.5 3.02652 7.5439 3.1325 7.62204 3.21064C7.70018 3.28878 7.80616 3.33268 7.91667 3.33268H12.0833C12.1938 3.33268 12.2998 3.28878 12.378 3.21064C12.4561 3.1325 12.5 3.02652 12.5 2.91602V2.08268C12.5 1.97218 12.4561 1.86619 12.378 1.78805C12.2998 1.70991 12.1938 1.66602 12.0833 1.66602H7.91667C7.80616 1.66602 7.70018 1.70991 7.62204 1.78805C7.5439 1.86619 7.5 1.97218 7.5 2.08268V2.91602Z" fill="white"/>
<path fill-rule="evenodd" clip-rule="evenodd" d="M17.5 6.25C17.5 6.36051 17.4561 6.46649 17.378 6.54463C17.2998 6.62277 17.1938 6.66667 17.0833 6.66667H15.8333V16.6667C15.8333 17.1087 15.6577 17.5326 15.3452 17.8452C15.0326 18.1577 14.6087 18.3333 14.1667 18.3333H5.83333C5.39131 18.3333 4.96738 18.1577 4.65482 17.8452C4.34226 17.5326 4.16667 17.1087 4.16667 16.6667V6.66667H2.91667C2.80616 6.66667 2.70018 6.62277 2.62204 6.54463C2.5439 6.46649 2.5 6.36051 2.5 6.25V5.41667C2.5 5.30616 2.5439 5.20018 2.62204 5.12204C2.70018 5.0439 2.80616 5 2.91667 5H17.0833C17.1938 5 17.2998 5.0439 17.378 5.12204C17.4561 5.20018 17.5 5.30616 17.5 5.41667V6.25ZM5.83333 6.66667H14.1667V16.6667H5.83333V6.66667Z" fill="white"/>
</svg>
