<svg width="24" height="24" viewBox="0 0 24 24" fill="none" xmlns="http://www.w3.org/2000/svg">
<path d="M19.2931 3.29289C19.6837 2.90237 20.3167 2.90237 20.7072 3.29289C21.0976 3.68342 21.0977 4.31646 20.7072 4.70696L13.4142 11.9999L20.7072 19.2929C21.0976 19.6834 21.0977 20.3165 20.7072 20.707C20.3167 21.0975 19.6837 21.0974 19.2931 20.707L12.0002 13.414L4.7072 20.707C4.3167 21.0975 3.68367 21.0974 3.29314 20.707C2.90261 20.3164 2.90261 19.6834 3.29314 19.2929L10.5861 11.9999L3.29314 4.70696C2.90261 4.31643 2.90261 3.68342 3.29314 3.29289C3.68366 2.90237 4.31668 2.90237 4.7072 3.29289L12.0002 10.5859L19.2931 3.29289Z" fill="black"/>
</svg>
