<svg width="24" height="24" viewBox="0 0 24 24" fill="none" xmlns="http://www.w3.org/2000/svg">
<path d="M12.0001 21.0002C16.9708 21.0002 21.0002 16.9707 21.0002 12.0001C21.0002 7.02947 16.9708 3 12.0001 3C7.02949 3 3 7.02947 3 12.0001C3 16.9707 7.02949 21.0002 12.0001 21.0002Z" stroke="black" stroke-width="1.5"/>
<path d="M3.8999 15.1436C5.08428 15.6185 5.9369 15.6185 6.45769 15.1436C7.2389 14.4312 6.56479 12.269 7.65889 11.6727C8.75295 11.0764 10.4199 13.7197 11.9779 12.8499C13.5358 11.9802 11.8311 9.66101 12.9123 8.72081C13.9934 7.78061 15.3994 8.84096 15.6451 7.26887C15.8909 5.69679 14.4985 6.37862 14.2313 4.89303C14.0532 3.90265 14.0532 3.38187 14.2313 3.33069" stroke="black" stroke-width="1.5" stroke-linecap="round"/>
<path d="M14.2595 20.7079C13.4161 19.8448 13.1125 19.0425 13.3486 18.301C13.7029 17.1887 14.2872 17.2545 14.542 16.5668C14.7968 15.879 14.0771 14.8996 15.674 14.0622C16.7386 13.504 18.2025 14.1508 20.0654 16.0026" stroke="black" stroke-width="1.5" stroke-linecap="round"/>
</svg>
