<svg width="24" height="24" viewBox="0 0 24 24" fill="none" xmlns="http://www.w3.org/2000/svg">
<g clip-path="url(#clip0_7_3730)">
<path fill-rule="evenodd" clip-rule="evenodd" d="M12 1.25C17.9371 1.25 22.75 6.06294 22.75 12C22.75 17.9371 17.9371 22.75 12 22.75C6.06294 22.75 1.25 17.9371 1.25 12C1.25 6.06294 6.06294 1.25 12 1.25ZM12 2.75C6.89137 2.75 2.75 6.89137 2.75 12C2.75 16.3237 5.71687 19.9531 9.72559 20.9668C9.72627 20.458 9.74834 19.7295 9.79199 18.7822C8.84257 18.815 8.24245 18.7495 7.99219 18.585C7.61674 18.3379 7.24074 17.5766 6.90723 17.04C6.57382 16.5038 5.83435 16.4187 5.53516 16.2988C5.23622 16.1788 5.16075 15.6898 6.3584 16.0596C7.55586 16.4293 7.61452 17.4362 7.99219 17.6719C8.36994 17.9073 9.27311 17.8038 9.68262 17.6152C10.0921 17.4266 10.0627 16.7245 10.1357 16.4463C10.2269 16.1893 9.90872 16.1301 9.89551 16.127C9.49575 16.127 7.39513 15.6702 6.81836 13.6367C6.24176 11.6039 6.98443 10.2747 7.38086 9.70312C7.64511 9.32224 7.62248 8.51018 7.31152 7.26758C8.44054 7.12339 9.31226 7.4789 9.92578 8.33398C9.94465 8.32783 10.7443 7.8555 12 7.85547C13.2704 7.85547 13.7215 8.24933 14.0693 8.33398C14.417 8.41733 14.6957 6.83729 16.8428 7.26758C16.3944 8.14899 16.0191 9.25062 16.3057 9.70312C16.5925 10.1559 17.7174 11.5947 17.0264 13.6367C16.5657 14.9982 15.6601 15.8283 14.3096 16.127C14.1547 16.1764 14.0771 16.2562 14.0771 16.3662C14.0773 16.5311 14.2863 16.5494 14.5879 17.3223C14.7632 17.7716 14.7968 18.948 14.6885 20.8516C18.4857 19.6998 21.25 16.1734 21.25 12C21.25 6.89137 17.1086 2.75 12 2.75Z" fill="black"/>
</g>
<defs>
<clipPath id="clip0_7_3730">
<rect width="22" height="22" fill="white" transform="translate(1 1)"/>
</clipPath>
</defs>
</svg>
