<svg width="24" height="24" viewBox="0 0 24 24" fill="none" xmlns="http://www.w3.org/2000/svg">
<path d="M12 18.9004C12.6075 18.9004 13.0996 19.3925 13.0996 20V21C13.0996 21.6075 12.6075 22.0996 12 22.0996C11.3925 22.0996 10.9004 21.6075 10.9004 21V20C10.9004 19.3925 11.3925 18.9004 12 18.9004Z" fill="black"/>
<path d="M6.22266 16.2227C6.65223 15.7931 7.34777 15.7931 7.77734 16.2227C8.20692 16.6522 8.20692 17.3478 7.77734 17.7773L6.77734 18.7773C6.34777 19.2069 5.65223 19.2069 5.22266 18.7773C4.79308 18.3478 4.79308 17.6522 5.22266 17.2227L6.22266 16.2227Z" fill="black"/>
<path d="M16.2227 16.2227C16.6522 15.7931 17.3478 15.7931 17.7773 16.2227L18.7773 17.2227C19.2069 17.6522 19.2069 18.3478 18.7773 18.7773C18.3478 19.2069 17.6522 19.2069 17.2227 18.7773L16.2227 17.7773C15.7931 17.3478 15.7931 16.6522 16.2227 16.2227Z" fill="black"/>
<path d="M12 7C14.7614 7 17 9.23858 17 12C17 14.7614 14.7614 17 12 17C9.23858 17 7 14.7614 7 12C7 9.23858 9.23858 7 12 7Z" fill="black"/>
<path d="M4 10.9004C4.60751 10.9004 5.09961 11.3925 5.09961 12C5.09961 12.6075 4.60751 13.0996 4 13.0996H3C2.39249 13.0996 1.90039 12.6075 1.90039 12C1.90039 11.3925 2.39249 10.9004 3 10.9004H4Z" fill="black"/>
<path d="M21 10.9004C21.6075 10.9004 22.0996 11.3925 22.0996 12C22.0996 12.6075 21.6075 13.0996 21 13.0996H19C18.3925 13.0996 17.9004 12.6075 17.9004 12C17.9004 11.3925 18.3925 10.9004 19 10.9004H21Z" fill="black"/>
<path d="M5.22266 5.22266C5.65223 4.79308 6.34777 4.79308 6.77734 5.22266L7.77734 6.22266C8.20692 6.65223 8.20692 7.34777 7.77734 7.77734C7.34777 8.20692 6.65223 8.20692 6.22266 7.77734L5.22266 6.77734C4.79308 6.34777 4.79308 5.65223 5.22266 5.22266Z" fill="black"/>
<path d="M17.2227 5.22266C17.6522 4.79308 18.3478 4.79308 18.7773 5.22266C19.2069 5.65223 19.2069 6.34777 18.7773 6.77734L17.7773 7.77734C17.3478 8.20692 16.6522 8.20692 16.2227 7.77734C15.7931 7.34777 15.7931 6.65223 16.2227 6.22266L17.2227 5.22266Z" fill="black"/>
<path d="M12 1.90039C12.6075 1.90039 13.0996 2.39249 13.0996 3V4C13.0996 4.60751 12.6075 5.09961 12 5.09961C11.3925 5.09961 10.9004 4.60751 10.9004 4V3C10.9004 2.39249 11.3925 1.90039 12 1.90039Z" fill="black"/>
</svg>
