<svg width="24" height="24" viewBox="0 0 24 24" fill="none" xmlns="http://www.w3.org/2000/svg">
<path fill-rule="evenodd" clip-rule="evenodd" d="M12 2C17.5229 2 21.9999 6.47713 22 12C22 17.5229 17.5229 22 12 22C6.47714 21.9999 2 17.5229 2 12C2.00006 6.47717 6.47718 2.00007 12 2ZM14.1582 4.29688C14.1674 4.46139 14.189 4.65662 14.2314 4.89258C14.4986 6.37805 15.891 5.69695 15.6455 7.26855C15.3998 8.84065 13.9933 7.78052 12.9121 8.7207C11.831 9.66092 13.5355 11.9798 11.9775 12.8496C10.4196 13.7191 8.75321 11.0769 7.65918 11.6729C6.56517 12.2691 7.23893 14.431 6.45801 15.1436C6.07433 15.4934 5.51057 15.5845 4.7666 15.4189C6.04869 18.1266 8.80509 20 12 20C12.5427 20 13.0726 19.9448 13.585 19.8418C13.2731 19.3016 13.1934 18.7884 13.3486 18.3008C13.7029 17.1892 14.2872 17.2539 14.542 16.5664C14.7962 15.8787 14.0783 14.8986 15.6748 14.0615C16.5876 13.5836 17.7934 13.9921 19.293 15.2852C19.7453 14.2826 20 13.1714 20 12C20 8.32973 17.5278 5.23897 14.1582 4.29688Z" fill="black"/>
</svg>
