<svg width="24" height="24" viewBox="0 0 24 24" fill="none" xmlns="http://www.w3.org/2000/svg">
<path d="M12 2C17.5229 2 22 6.47714 22 12C22 16.5033 19.0228 20.31 14.9297 21.5625C15.0576 19.4375 15.0239 18.128 14.8281 17.6348C14.4988 16.8052 14.2707 16.7854 14.2705 16.6084C14.2705 16.4903 14.3552 16.4046 14.5244 16.3516C15.9998 16.0308 16.9889 15.139 17.4922 13.6768C18.2472 11.4832 17.0183 9.93725 16.7051 9.45117C16.3922 8.96503 16.8022 7.78249 17.292 6.83594C14.9456 6.37353 14.6417 8.07098 14.2617 7.98047C13.8817 7.88955 13.3888 7.46777 12.001 7.46777C10.6132 7.46785 9.73503 7.98574 9.73438 7.98047C9.0641 7.06225 8.11225 6.68105 6.87891 6.83594C7.21858 8.17042 7.2437 9.04204 6.95508 9.45117C6.52205 10.0648 5.71066 11.4927 6.34082 13.6768C6.97074 15.86 9.26327 16.3512 9.70117 16.3516C9.70898 16.3538 10.0647 16.4154 9.96387 16.6943C9.8841 16.9932 9.91707 17.7476 9.46973 17.9502C9.02244 18.1528 8.03584 18.2636 7.62305 18.0107C7.21027 17.7578 7.14617 16.6766 5.83789 16.2793C4.52968 15.8822 4.61109 16.4071 4.9375 16.5361C5.26409 16.665 6.07311 16.7557 6.4375 17.332C6.80193 17.9084 7.2128 18.726 7.62305 18.9912C7.89646 19.168 8.55166 19.2393 9.58887 19.2041C9.53696 20.3116 9.51386 21.1401 9.51758 21.6895C5.1956 20.5855 2 16.6659 2 12C2 6.47714 6.47715 2 12 2Z" fill="black"/>
</svg>
