<svg width="24" height="24" viewBox="0 0 24 24" fill="none" xmlns="http://www.w3.org/2000/svg">
<path fill-rule="evenodd" clip-rule="evenodd" d="M17 3.5C19.2091 3.5 21 5.29086 21 7.5V17C21 19.2091 19.2091 21 17 21H7C4.79086 21 3 19.2091 3 17V7.5C3 5.29086 4.79086 3.5 7 3.5H17ZM12 7C11.4477 7 11 7.44772 11 8V11H8C7.44772 11 7 11.4477 7 12C7 12.5523 7.44772 13 8 13H11V16C11 16.5523 11.4477 17 12 17C12.5523 17 13 16.5523 13 16V13H16C16.5523 13 17 12.5523 17 12C17 11.4477 16.5523 11 16 11H13V8C13 7.44772 12.5523 7 12 7Z" fill="black"/>
</svg>
