<svg width="24" height="24" viewBox="0 0 24 24" fill="none" xmlns="http://www.w3.org/2000/svg">
<path d="M8.5 15.5C8.77613 15.5 9 15.7239 9 16C9 16.2761 8.77613 16.5 8.5 16.5C8.22386 16.5 8 16.2761 8 16C8 15.7239 8.22386 15.5 8.5 15.5Z" fill="black"/>
<path fill-rule="evenodd" clip-rule="evenodd" d="M17 3.5C19.2091 3.5 21 5.29086 21 7.5V17C21 19.2091 19.2091 21 17 21H7C4.79086 21 3 19.2091 3 17V7.5C3 5.29086 4.79086 3.5 7 3.5H17ZM8.5 13.5C7.11928 13.5 6 14.6193 6 16C6 17.3807 7.11928 18.5 8.5 18.5C9.8807 18.5 11 17.3807 11 16C11 14.6193 9.8807 13.5 8.5 13.5ZM14 15C13.4477 15 13 15.4477 13 16C13 16.5523 13.4477 17 14 17H17.5C18.0523 17 18.5 16.5523 18.5 16C18.5 15.4477 18.0523 15 17.5 15H14ZM11.707 6.79297C11.3165 6.40244 10.6835 6.40244 10.293 6.79297L8 9.08594L7.20703 8.29297C6.81651 7.90244 6.18349 7.90244 5.79297 8.29297C5.40244 8.68349 5.40244 9.31651 5.79297 9.70703L7.29297 11.207C7.68349 11.5976 8.31651 11.5976 8.70703 11.207L11.707 8.20703C12.0976 7.81651 12.0976 7.18349 11.707 6.79297ZM14 8.5C13.4477 8.5 13 8.94772 13 9.5C13 10.0523 13.4477 10.5 14 10.5H17.5C18.0523 10.5 18.5 10.0523 18.5 9.5C18.5 8.94772 18.0523 8.5 17.5 8.5H14Z" fill="black"/>
</svg>
