<svg width="24" height="24" viewBox="0 0 24 24" fill="none" xmlns="http://www.w3.org/2000/svg">
<path d="M14.7123 3.5C16.1296 3.50001 17.4409 4.25015 18.1596 5.47168L20.8071 9.97168C21.5434 11.2235 21.5434 12.7765 20.8071 14.0283L18.1596 18.5283C17.4409 19.7498 16.1296 20.5 14.7123 20.5H9.28754C7.87029 20.4999 6.55893 19.7498 5.84027 18.5283L3.19281 14.0283C2.45644 12.7765 2.45644 11.2235 3.19281 9.97168L5.84027 5.47168C6.55893 4.25016 7.87029 3.5001 9.28754 3.5H14.7123ZM12.0004 9.5C10.6197 9.5 9.50043 10.6193 9.50043 12C9.50043 13.3807 10.6197 14.5 12.0004 14.5C13.3809 14.4998 14.5004 13.3805 14.5004 12C14.5004 10.6195 13.3809 9.50025 12.0004 9.5Z" fill="#0D0D0D"/>
</svg>
