<svg width="24" height="24" viewBox="0 0 24 24" fill="none" xmlns="http://www.w3.org/2000/svg">
<path fill-rule="evenodd" clip-rule="evenodd" d="M15.0003 3C15.5524 3.00015 16.0003 3.44781 16.0003 4C16.0003 3.44772 16.448 3 17.0003 3H20.0003C20.5524 3.00015 21.0003 3.44781 21.0003 4V20C21.0003 20.5522 20.5524 20.9998 20.0003 21H17.0003C16.448 21 16.0003 20.5523 16.0003 20C16.0003 20.5522 15.5524 20.9998 15.0003 21H12.0003C11.448 21 11.0003 20.5523 11.0003 20V4C11.0003 3.44772 11.448 3 12.0003 3H15.0003ZM13.5003 6.5C12.948 6.5 12.5003 6.94772 12.5003 7.5V9C12.5003 9.55228 12.948 10 13.5003 10C14.0524 9.99985 14.5003 9.55219 14.5003 9V7.5C14.5003 6.94781 14.0524 6.50015 13.5003 6.5ZM18.5003 6.5C17.948 6.5 17.5003 6.94772 17.5003 7.5V9C17.5003 9.55228 17.948 10 18.5003 10C19.0524 9.99985 19.5003 9.55219 19.5003 9V7.5C19.5003 6.94781 19.0524 6.50015 18.5003 6.5Z" fill="black"/>
<path d="M6.00321 3.125L8.03153 3.37891C8.56999 3.44621 8.9566 3.93074 8.90262 4.4707L7.35086 19.9873C7.29523 20.5436 6.79476 20.9461 6.23954 20.8809L3.98953 20.6162C3.4425 20.5517 3.05101 20.0571 3.11356 19.5098L4.88504 4.00391C4.9483 3.45117 5.45114 3.05599 6.00321 3.125Z" fill="black"/>
</svg>
