<svg width="40" height="40" viewBox="0 0 40 40" fill="none" xmlns="http://www.w3.org/2000/svg">
<path d="M20 5C11.7174 5 5 11.7174 5 20C5 28.2826 11.7141 35 20 35C28.2859 35 35 28.2859 35 20C35 11.7174 28.2859 5 20 5ZM23.9331 21.5215H19.7481C18.9084 21.5215 18.2266 20.8397 18.2266 20V12.0499C18.2266 11.2103 18.9084 10.5284 19.7481 10.5284C20.5878 10.5284 21.2696 11.2103 21.2696 12.0499V18.4819H23.9331C24.7727 18.4819 25.4545 19.1637 25.4545 20.0034C25.4545 20.843 24.7727 21.5215 23.9331 21.5215Z" fill="#28C9FF"/>
</svg>
