<svg width="40" height="40" viewBox="0 0 40 40" fill="none" xmlns="http://www.w3.org/2000/svg">
<path d="M26.7544 25.7413L12.7829 34.6342C12.4463 34.8826 12.0316 35.0016 11.6145 34.9693C11.1974 34.9371 10.8059 34.7557 10.5115 34.4585C10.1762 34.1564 9.96027 33.7441 9.90287 33.2965C9.84547 32.8488 9.95041 32.3954 10.1986 32.0185L15.1929 23.3699C15.4537 22.9361 15.5329 22.417 15.4133 21.9252C15.2938 21.4334 14.9851 21.0085 14.5544 20.7428L10.6744 18.5028C10.3793 18.3303 10.1349 18.0831 9.96563 17.7862C9.79637 17.4893 9.70823 17.1531 9.71008 16.8113C9.69818 16.4656 9.7836 16.1235 9.95661 15.824C10.1296 15.5245 10.3833 15.2795 10.6886 15.1171L25.3086 5.4742C25.6451 5.2256 26.0597 5.1064 26.4768 5.13841C26.8939 5.17041 27.2855 5.35147 27.5801 5.64849C27.9153 5.95057 28.1314 6.36271 28.189 6.8103C28.2467 7.25788 28.1421 7.71131 27.8944 8.08849L22.4072 17.5913C22.1468 18.0249 22.0676 18.5435 22.1869 19.035C22.3061 19.5264 22.6142 19.9511 23.0444 20.2171L26.6015 22.2713C26.9258 22.4585 27.1544 22.8099 27.4729 22.9942C27.7371 23.4563 27.8094 24.0036 27.6742 24.5184C27.539 25.0332 27.2072 25.4744 26.7501 25.7471L26.7544 25.7413Z" fill="#FFCB20"/>
</svg>
