<svg width="40" height="40" viewBox="0 0 40 40" fill="none" xmlns="http://www.w3.org/2000/svg">
<path d="M19.9725 7.52102C11.1245 7.53654 3.98956 14.6963 4.00197 23.5443C4.00507 25.8998 4.51715 28.1343 5.43578 30.1454C5.69957 30.7257 6.00061 31.2906 6.32958 31.8306C6.41958 31.9796 6.58096 32.0696 6.75476 32.0696H33.2492C33.423 32.0696 33.5843 31.9796 33.6743 31.8306C34.0033 31.2875 34.3044 30.7257 34.5681 30.1454C35.4868 28.1281 36.002 25.8812 36.002 23.5195C35.9988 14.6745 28.8205 7.5055 19.9725 7.52102ZM25.1646 19.8636C23.8922 22.5946 22.3715 25.636 21.5646 26.4429C20.7887 27.2188 19.7708 27.6067 18.7559 27.6067C17.7411 27.6067 16.7231 27.2188 15.9473 26.4429C14.3955 24.8912 14.3955 22.3774 15.9473 20.8256C16.7542 20.0187 19.7956 18.498 22.5266 17.2256C22.8122 17.0922 23.1008 17.0332 23.377 17.0332C24.7239 17.0301 25.8132 18.467 25.1646 19.8636ZM31.9892 26.3343C31.9364 26.5609 31.8092 26.7533 31.6385 26.8867C31.4678 27.0202 31.2505 27.104 31.0209 27.104C30.3816 27.104 29.9098 26.5112 30.0526 25.8874C30.2295 25.1271 30.3164 24.345 30.3164 23.5505C30.3164 22.157 30.0433 20.8039 29.5064 19.5346C28.985 18.3056 28.2433 17.2008 27.2936 16.2542C26.347 15.3046 25.2422 14.5628 24.0132 14.0414C22.7408 13.5045 21.3908 13.2314 19.9973 13.2314C18.6038 13.2314 17.2507 13.5045 15.9814 14.0414C14.7524 14.5628 13.6476 15.3046 12.701 16.2542C11.7514 17.2008 11.0096 18.3056 10.4882 19.5346C9.95134 20.807 9.67823 22.157 9.67823 23.5505C9.67823 24.345 9.76824 25.1271 9.94203 25.8874C9.96065 25.965 9.96686 26.0395 9.96686 26.114C9.96686 26.6478 9.53547 27.104 8.97374 27.104C8.51443 27.104 8.11098 26.7874 8.00856 26.3405C7.81304 25.4902 7.70442 24.6057 7.69201 23.6995C7.61132 16.8997 13.179 11.2545 19.9787 11.2452C26.7877 11.2359 32.3057 16.7477 32.3057 23.5505C32.3057 24.5064 32.1971 25.4405 31.9892 26.3343Z" fill="#32DA5F"/>
</svg>
