<svg width="40" height="40" viewBox="0 0 40 40" fill="none" xmlns="http://www.w3.org/2000/svg">
<path d="M20 3C23.3137 3 26 5.68629 26 9V18.999C28.429 20.8234 30 23.7283 30 27C30 32.5228 25.5228 37 20 37C14.4772 37 10 32.5228 10 27C10 23.7283 11.571 20.8234 14 18.999V9C14 5.68629 16.6863 3 20 3ZM20 7C18.3431 7 17 8.34315 17 10V20.6738C14.6351 21.7973 13 24.2076 13 27C13 30.866 16.134 34 20 34C23.866 34 27 30.866 27 27C27 24.2076 25.3649 21.7973 23 20.6738V10C23 8.34315 21.6569 7 20 7ZM20 8.5C20.8284 8.5 21.5 9.17157 21.5 10V20.6738C21.5 21.2529 21.8334 21.7798 22.3564 22.0283C24.2181 22.9127 25.5 24.8083 25.5 27C25.5 30.0376 23.0376 32.5 20 32.5C16.9624 32.5 14.5 30.0376 14.5 27C14.5 24.8083 15.7819 22.9127 17.6436 22.0283C18.1666 21.7798 18.5 21.2529 18.5 20.6738V10C18.5 9.17157 19.1716 8.5 20 8.5Z" fill="#FF8929"/>
<rect x="28" y="6" width="5" height="2" fill="#FF8929"/>
<rect x="28" y="10" width="5" height="2" fill="#FF8929"/>
<rect x="28" y="14" width="5" height="2" fill="#FF8929"/>
</svg>
