<svg width="40" height="40" viewBox="0 0 40 40" fill="none" xmlns="http://www.w3.org/2000/svg">
<path d="M16.5548 5.65647C16.5548 5.29474 16.2576 5 15.8928 5H14.4641C14.0993 5 13.8021 5.29474 13.8021 5.65647V8.35938H16.5515V5.65647H16.5548ZM21.4118 5.65647C21.4118 5.29474 21.1146 5 20.7498 5H19.3211C18.9563 5 18.6591 5.29474 18.6591 5.65647V8.35938H21.4051L21.4118 5.65647ZM25.9784 5.65647C25.9784 5.29474 25.6812 5 25.3164 5H23.8876C23.5229 5 23.2256 5.29474 23.2256 5.65647V8.35938H25.9716L25.9784 5.65647ZM23.2324 34.3435C23.2324 34.7053 23.5296 35 23.8944 35H25.3231C25.6879 35 25.9851 34.7053 25.9851 34.3435V31.6406H23.2391L23.2324 34.3435ZM18.372 34.3435C18.372 34.7053 18.6692 35 19.034 35H20.4627C20.8275 35 21.1247 34.7053 21.1247 34.3435V31.6406H18.3787L18.372 34.3435ZM13.8088 34.3435C13.8088 34.7053 14.1061 35 14.4708 35H15.8996C16.2644 35 16.5616 34.7053 16.5616 34.3435V31.6406H13.8156L13.8088 34.3435ZM5 23.7563V25.173C5 25.5348 5.29723 25.8295 5.66201 25.8295H8.38775V23.1065H5.66201C5.29723 23.0998 5 23.3946 5 23.7563ZM5 18.9366V20.3534C5 20.7151 5.29723 21.0098 5.66201 21.0098H8.38775V18.2868H5.66201C5.29723 18.2835 5 18.5782 5 18.9366ZM5 14.415V15.8284C5 16.1901 5.29723 16.4849 5.66201 16.4849H8.38775V13.7619H5.66201C5.29723 13.7585 5 14.0533 5 14.415ZM34.338 13.7585H31.6122V16.4815H34.338C34.7028 16.4815 35 16.1868 35 15.8251V14.415C35 14.0533 34.7028 13.7585 34.338 13.7585ZM34.338 18.5782H31.6122V21.3012H34.338C34.7028 21.3012 35 21.0065 35 20.6447V19.228C35 18.8696 34.7028 18.5782 34.338 18.5782ZM34.338 23.0998H31.6122V25.8228H34.338C34.7028 25.8228 35 25.5281 35 25.1664V23.7496C35 23.3946 34.7028 23.0998 34.338 23.0998ZM10.2758 14.003V29.3765H29.5114V10.2082H14.0081L10.2758 14.003ZM25.9885 24.3491C26.8397 24.3491 27.5321 25.0357 27.5321 25.8798C27.5321 26.7238 26.8397 27.4104 25.9885 27.4104C25.1374 27.4104 24.4449 26.7238 24.4449 25.8798C24.4449 25.0357 25.1374 24.3491 25.9885 24.3491Z" fill="#218DFF"/>
</svg>
